<svg xmlns="http://www.w3.org/2000/svg" viewBox="0 0 512 512" width="512" height="512">
  <defs>
    <linearGradient id="g" x1="0" y1="0" x2="1" y2="1">
      <stop offset="0" stop-color="#2f6bff"/>
      <stop offset="1" stop-color="#5b9bff"/>
    </linearGradient>
  </defs>
  <rect width="512" height="512" fill="url(#g)"/>
  <path fill="#ffffff" d="M256 136c40 0 72 32 72 72v36h14c16 0 28 12 28 28v116c0 16-12 28-28 28H170c-16 0-28-12-28-28V272c0-16 12-28 28-28h14v-36c0-40 32-72 72-72zm0 36c-20 0-36 16-36 36v36h72v-36c0-20-16-36-36-36z"/>
  <circle cx="256" cy="288" r="20" fill="#2f6bff"/>
  <rect x="248" y="292" width="16" height="40" rx="8" fill="#2f6bff"/>
</svg>
