<svg xmlns="http://www.w3.org/2000/svg" viewBox="0 0 512 512" width="512" height="512">
  <defs>
    <linearGradient id="g" x1="0" y1="0" x2="1" y2="1">
      <stop offset="0" stop-color="#2f6bff"/>
      <stop offset="1" stop-color="#5b9bff"/>
    </linearGradient>
  </defs>
  <rect width="512" height="512" rx="112" fill="url(#g)"/>
  <path fill="#ffffff" d="M256 96c44 0 80 36 80 80v40h16c18 0 32 14 32 32v128c0 18-14 32-32 32H160c-18 0-32-14-32-32V248c0-18 14-32 32-32h16v-40c0-44 36-80 80-80zm0 40c-22 0-40 18-40 40v40h80v-40c0-22-18-40-40-40z"/>
  <circle cx="256" cy="296" r="22" fill="#2f6bff"/>
  <rect x="248" y="300" width="16" height="44" rx="8" fill="#2f6bff"/>
</svg>
